# xmcd
#
# Track frame offsets:
# 150
# 31059
# 58516
# 96936
# 118709
# 143489
# 185083
# 203341
# 224440
# 255051
# 296808
# 326535
#
# Disc length: 4759 seconds
#
#
# Revision: 0
# Processed by: cddbd v1.5.1PL2 Copyright (c) Steve Scherf et al.
# Submitted via: FreeRIP 2.945 
#
DISCID=a812950c
DTITLE=Elliot Murphy - Live at Rockodrom CD2
DYEAR=2005
DGENRE=Rock
TTITLE0=Walk on the Wild Side
TTITLE1=Irish Eyes
TTITLE2=Blind Willie McTell
TTITLE3=The Day After Valentine's Day
TTITLE4=Euro Tour
TTITLE5=Diamonds by the Yard
TTITLE6=Party Girls and Broken Poets
TTITLE7=You Never Know You're in For
TTITLE8=Strangers on a Train
TTITLE9=Rock Ballad
TTITLE10=Route 66
TTITLE11=Knocking on Heaven's Door
EXTD=
EXTT0=
EXTT1=
EXTT2=
EXTT3=
EXTT4=
EXTT5=
EXTT6=
EXTT7=
EXTT8=
EXTT9=
EXTT10=
EXTT11=
PLAYORDER=
